<svg width="255" height="255" viewBox="0 0 255 255" fill="none" xmlns="http://www.w3.org/2000/svg">
<path d="M145.484 25.4328C129.972 14.9376 109.879 14.4513 94.104 24.1692C88.4089 27.68 85.6991 30.3465 51.0456 66.8554C19.1766 100.342 18.4611 101.146 16.5432 104.262C6.3009 121.135 6.61903 140.574 17.4056 157.399C18.8229 159.582 21.0538 161.915 35.8549 176.487C51.1521 191.594 52.774 193.12 53.5846 193.105C54.3953 193.091 59.5446 187.763 117.609 127.055C160.654 82.0506 180.846 60.7723 181.025 60.1964C181.227 59.4292 180.786 58.9461 164.641 43.2807C151.522 30.5611 147.509 26.8147 145.484 25.4328ZM52.9209 172.473L41.8587 161.434C31.6501 151.281 30.603 150.154 29.0442 147.618C22.3899 136.692 22.3974 123.411 29.1262 112.655C31.2014 109.263 97.2274 40.231 100.432 38.0465C109.54 31.8567 121.087 30.614 131.107 34.7439C136.145 36.8084 137.982 38.2755 149.781 49.7097L160.452 60.0459L52.9209 172.473Z" fill="#0B387B"/>
<path d="M43.822 189.409C47.2277 190.998 51.8729 192.753 53.5528 193.123C53.8046 193.173 53.0215 191.973 51.8197 190.476C31.3955 164.956 29.3621 121.972 46.5459 79.781C48.1745 75.7375 51.5878 68.3177 52.393 67.0028L52.7719 66.384L64.6868 73.7393L76.6174 81.0689L69.3368 49.8839L62.0149 18.7087L0 33.4909L11.9599 40.9456C22.0032 47.2056 23.8627 48.4359 23.6733 48.7453C23.1365 49.622 20.5569 55.1034 19.0216 58.7063C8.57162 82.8653 4.36498 107.496 6.76577 130.331C7.32523 135.703 9.86025 146.902 11.5819 151.644C15.9261 163.579 22.2738 173.164 31.0255 180.899C33.6133 183.189 40.9079 188.056 43.822 189.409Z" fill="#690032"/>
<path d="M226.982 105.603C238.012 120.949 239.274 141.255 230.231 157.527C226.964 163.402 224.42 166.229 189.49 202.47C157.456 235.795 156.685 236.545 153.664 238.586C137.296 249.496 117.97 249.809 100.835 239.449C98.6102 238.087 96.2059 235.907 81.1541 221.413C65.55 206.435 63.9714 204.844 63.9543 204.024C63.9373 203.204 69.0314 197.822 127.096 137.113C170.14 92.1094 190.498 70.9923 191.064 70.7925C191.818 70.5625 192.315 70.9928 208.506 86.8102C221.653 99.6637 225.531 103.6 226.982 105.603ZM84.4801 204.021L95.8765 214.849C106.361 224.843 107.521 225.865 110.101 227.359C121.215 233.732 134.41 233.291 144.836 226.134C148.125 223.924 214.152 154.892 216.198 151.58C221.994 142.166 222.781 130.447 218.289 120.448C216.042 115.42 214.513 113.61 202.695 102.05L192.011 91.5947L84.4801 204.021Z" fill="#690032"/>
<path d="M201.16 74.3266C197.74 72.7693 193.079 71.0564 191.396 70.7015C191.144 70.6537 191.937 71.8471 193.153 73.3333C213.805 98.6656 216.223 141.629 199.418 183.975C197.826 188.033 194.479 195.484 193.686 196.806L193.312 197.428L181.332 190.182L169.336 182.962L176.896 214.079L184.497 245.186L246.377 229.839L234.351 222.494C224.252 216.325 222.381 215.112 222.568 214.801C223.097 213.919 225.627 208.415 227.13 204.798C237.363 180.545 241.349 155.877 238.744 133.064C238.136 127.698 235.501 116.523 233.737 111.796C229.286 99.9018 222.852 90.3749 214.032 82.72C211.424 80.4539 204.086 75.6533 201.16 74.3266Z" fill="#0B387B"/>
<path d="M124.218 70.747C124.218 78.8455 117.711 85.4107 109.684 85.4107C101.658 85.4107 95.1505 78.8455 95.1505 70.747C95.1505 62.6484 101.658 56.0832 109.684 56.0832C117.711 56.0832 124.218 62.6484 124.218 70.747Z" fill="#0B387B"/>
<path d="M154.117 188.266C154.117 196.365 147.61 202.93 139.583 202.93C131.556 202.93 125.049 196.365 125.049 188.266C125.049 180.168 131.556 173.603 139.583 173.603C147.61 173.603 154.117 180.168 154.117 188.266Z" fill="#690032"/>
<path d="M154.107 17.2259C138.595 6.73075 118.503 6.24439 102.727 15.9623C97.032 19.4731 94.3223 22.1396 59.6688 58.6485C27.7998 92.135 27.0842 92.9386 25.1664 96.0546C14.9241 112.928 15.2422 132.367 26.0288 149.192C27.4461 151.376 29.677 153.708 44.4781 168.28C59.7753 183.388 61.3971 184.913 62.2078 184.899C63.0185 184.884 68.1678 179.556 126.232 118.848C169.277 73.8437 189.469 52.5654 189.648 51.9895C189.851 51.2223 189.41 50.7393 173.265 35.0738C160.145 22.3542 156.132 18.6078 154.107 17.2259ZM61.5441 164.266L50.4819 153.227C40.2733 143.074 39.2261 141.947 37.6674 139.411C31.0131 128.485 31.0206 115.204 37.7494 104.448C39.8246 101.056 105.851 32.0241 109.055 29.8396C118.163 23.6498 129.71 22.4072 139.73 26.537C144.768 28.6015 146.605 30.0686 158.404 41.5028L169.075 51.839L61.5441 164.266Z" fill="#00C3E3"/>
<path d="M52.4452 181.202C55.8509 182.791 60.496 184.546 62.176 184.916C62.4278 184.966 61.6447 183.766 60.4429 182.269C40.0187 156.749 37.9852 113.765 55.1691 71.5741C56.7977 67.5306 60.211 60.1108 61.0162 58.7959L61.3951 58.1771L73.31 65.5324L85.2406 72.862L77.96 41.677L70.6381 10.5018L8.62319 25.284L20.5831 32.7387C30.6264 38.9987 32.4859 40.229 32.2965 40.5384C31.7597 41.4151 29.1801 46.8965 27.6448 50.4994C17.1948 74.6584 12.9882 99.289 15.389 122.124C15.9484 127.496 18.4834 138.695 20.205 143.437C24.5493 155.372 30.897 164.957 39.6487 172.692C42.2365 174.982 49.531 179.849 52.4452 181.202Z" fill="#FF4554"/>
<path d="M235.605 97.3959C246.635 112.742 247.898 133.048 238.854 149.32C235.587 155.195 233.043 158.022 198.113 194.263C166.079 227.588 165.308 228.338 162.287 230.379C145.919 241.289 126.593 241.602 109.458 231.242C107.233 229.88 104.829 227.7 89.7773 213.206C74.1732 198.228 72.5946 196.637 72.5775 195.817C72.5605 194.997 77.6546 189.615 135.719 128.907C178.764 83.9025 199.121 62.7854 199.687 62.5856C200.441 62.3556 200.938 62.7859 217.129 78.6033C230.276 91.4568 234.154 95.3931 235.605 97.3959ZM93.1033 195.815L104.5 206.642C114.984 216.636 116.144 217.658 118.724 219.152C129.838 225.525 143.034 225.084 153.46 217.927C156.749 215.718 222.775 146.686 224.821 143.373C230.617 133.96 231.404 122.24 226.912 112.241C224.665 107.213 223.136 105.403 211.318 93.8432L200.634 83.3878L93.1033 195.815Z" fill="#FF4554"/>
<path d="M209.783 66.1197C206.363 64.5624 201.702 62.8495 200.019 62.4946C199.767 62.4468 200.561 63.6402 201.776 65.1264C222.428 90.4587 224.846 133.422 208.041 175.768C206.449 179.826 203.102 187.277 202.309 188.599L201.935 189.222L189.955 181.975L177.959 174.755L185.519 205.872L193.12 236.979L255 221.632L242.974 214.287C232.875 208.118 231.004 206.905 231.191 206.594C231.72 205.713 234.25 200.208 235.753 196.591C245.986 172.338 249.972 147.67 247.367 124.857C246.759 119.491 244.124 108.316 242.36 103.589C237.909 91.6949 231.476 82.168 222.655 74.5131C220.047 72.247 212.709 67.4464 209.783 66.1197Z" fill="#00C3E3"/>
<path d="M132.842 62.5401C132.842 70.6386 126.334 77.2038 118.308 77.2038C110.281 77.2038 103.774 70.6386 103.774 62.5401C103.774 54.4415 110.281 47.8764 118.308 47.8764C126.334 47.8764 132.842 54.4415 132.842 62.5401Z" fill="#00C3E3"/>
<path d="M162.74 180.059C162.74 188.158 156.233 194.723 148.206 194.723C140.179 194.723 133.672 188.158 133.672 180.059C133.672 171.961 140.179 165.396 148.206 165.396C156.233 165.396 162.74 171.961 162.74 180.059Z" fill="#FF4554"/>
</svg>
