<svg width="256" height="256" viewBox="0 0 256 256" fill="none" xmlns="http://www.w3.org/2000/svg">
<path d="M151.167 17.5531C135.048 6.64049 114.171 6.13478 97.7796 16.2393C91.862 19.8896 89.0464 22.6622 53.0394 60.6233C19.9256 95.4417 19.1821 96.2774 17.1893 99.5173C6.547 117.062 6.87756 137.274 18.0854 154.768C19.5581 157.039 21.8761 159.464 37.2553 174.615C53.15 190.324 54.8352 191.91 55.6776 191.895C56.5199 191.88 61.8703 186.34 122.203 123.217C166.928 76.4229 187.91 54.2983 188.095 53.6994C188.306 52.9017 187.848 52.3995 171.072 36.1109C157.44 22.8853 153.271 18.99 151.167 17.5531ZM54.988 170.442L43.4936 158.964C32.8863 148.407 31.7983 147.235 30.1787 144.599C23.2645 133.238 23.2722 119.428 30.2638 108.244C32.4201 104.718 101.025 32.9399 104.355 30.6686C113.818 24.2325 125.816 22.9404 136.228 27.2346C141.462 29.3811 143.371 30.9066 155.631 42.7956L166.719 53.5429L54.988 170.442Z" fill="#06F0FF"/>
<path d="M45.5336 188.052C49.0723 189.703 53.8989 191.529 55.6445 191.914C55.9062 191.966 55.0925 190.717 53.8437 189.161C32.6217 162.626 30.5089 117.933 48.364 74.0631C50.0561 69.8587 53.6028 62.1438 54.4394 60.7765L54.8331 60.1331L67.2134 67.781L79.61 75.4021L72.045 42.9767L64.4371 10.5615L0 25.9317L12.4271 33.6829C22.8626 40.192 24.7948 41.4712 24.5979 41.7929C24.0402 42.7044 21.3599 48.4038 19.7646 52.1501C8.90642 77.27 4.53548 102.88 7.03004 126.624C7.61134 132.209 10.2454 143.853 12.0342 148.784C16.5481 161.194 23.1438 171.16 32.2374 179.203C34.9262 181.584 42.5057 186.645 45.5336 188.052Z" fill="#FF2F54"/>
<path d="M235.848 100.912C247.308 116.869 248.62 137.982 239.224 154.901C235.829 161.01 233.185 163.95 196.892 201.632C163.606 236.283 162.805 237.062 159.665 239.185C142.659 250.529 122.578 250.854 104.773 240.082C102.462 238.666 99.9636 236.399 84.3239 221.329C68.1103 205.755 66.47 204.101 66.4523 203.248C66.4346 202.395 71.7277 196.799 132.06 133.676C176.786 86.8819 197.939 64.9248 198.526 64.717C199.31 64.4779 199.827 64.9253 216.65 81.3719C230.31 94.7366 234.34 98.8295 235.848 100.912ZM87.7798 203.245L99.6214 214.504C110.515 224.895 111.721 225.958 114.401 227.511C125.949 234.137 139.66 233.679 150.493 226.237C153.911 223.94 222.516 152.162 224.642 148.718C230.665 138.93 231.482 126.745 226.815 116.347C224.481 111.12 222.892 109.238 210.612 97.2179L199.511 86.3467L87.7798 203.245Z" fill="#FF2F54"/>
<path d="M209.017 68.3917C205.463 66.7725 200.62 64.9914 198.872 64.6224C198.609 64.5727 199.434 65.8136 200.697 67.3588C222.156 93.6988 224.669 138.371 207.207 182.402C205.553 186.621 202.075 194.368 201.251 195.743L200.863 196.39L188.415 188.855L175.95 181.348L183.805 213.703L191.703 246.047L256 230.09L243.504 222.452C233.011 216.039 231.067 214.777 231.261 214.454C231.811 213.537 234.44 207.813 236.001 204.053C246.634 178.835 250.776 153.186 248.069 129.466C247.437 123.886 244.699 112.266 242.866 107.352C238.241 94.9841 231.557 85.0783 222.392 77.119C219.681 74.7627 212.057 69.7711 209.017 68.3917Z" fill="#06F0FF"/>
<path d="M129.07 64.6697C129.07 73.0904 122.309 79.9167 113.969 79.9167C105.628 79.9167 98.867 73.0904 98.867 64.6697C98.867 56.249 105.628 49.4227 113.969 49.4227C122.309 49.4227 129.07 56.249 129.07 64.6697Z" fill="#06F0FF"/>
<path d="M160.136 186.863C160.136 195.284 153.375 202.11 145.035 202.11C136.694 202.11 129.933 195.284 129.933 186.863C129.933 178.443 136.694 171.616 145.035 171.616C153.375 171.616 160.136 178.443 160.136 186.863Z" fill="#FF2F54"/>
</svg>
